<mxfile host="app.diagrams.net" modified="2020-11-04T05:08:45.769Z" agent="5.0 (Macintosh; Intel Mac OS X 10_15_4) AppleWebKit/537.36 (KHTML, like Gecko) Chrome/86.0.4240.111 Safari/537.36" etag="jcBmabzgGUupKXYL7c2A" version="13.8.8" type="github">
  <diagram id="l0p_dDenutnNicA175Ue" name="Page-1">
    <mxGraphModel dx="679" dy="351" grid="1" gridSize="10" guides="1" tooltips="1" connect="1" arrows="1" fold="1" page="1" pageScale="1" pageWidth="827" pageHeight="1169" math="0" shadow="0">
      <root>
        <mxCell id="0" />
        <mxCell id="1" parent="0" />
        <mxCell id="drqvJoOzzWH7c4p4iipj-1" value="Actor" style="shape=umlActor;verticalLabelPosition=bottom;verticalAlign=top;html=1;outlineConnect=0;" vertex="1" parent="1">
          <mxGeometry x="80" y="131.5" width="30" height="60" as="geometry" />
        </mxCell>
        <mxCell id="drqvJoOzzWH7c4p4iipj-4" value="APP端" style="shape=umlLifeline;perimeter=lifelinePerimeter;whiteSpace=wrap;html=1;container=1;collapsible=0;recursiveResize=0;outlineConnect=0;" vertex="1" parent="1">
          <mxGeometry x="180" y="80" width="100" height="340" as="geometry" />
        </mxCell>
        <mxCell id="drqvJoOzzWH7c4p4iipj-21" value="" style="html=1;points=[];perimeter=orthogonalPerimeter;" vertex="1" parent="drqvJoOzzWH7c4p4iipj-4">
          <mxGeometry x="50" y="267" width="10" height="40" as="geometry" />
        </mxCell>
        <mxCell id="drqvJoOzzWH7c4p4iipj-22" value="完成配置字段+ href字段组合" style="edgeStyle=orthogonalEdgeStyle;html=1;align=left;spacingLeft=2;endArrow=block;rounded=0;entryX=1;entryY=0;" edge="1" target="drqvJoOzzWH7c4p4iipj-21" parent="drqvJoOzzWH7c4p4iipj-4">
          <mxGeometry relative="1" as="geometry">
            <mxPoint x="50.02380952380952" y="246.9999999999999" as="sourcePoint" />
            <Array as="points">
              <mxPoint x="80" y="247" />
              <mxPoint x="80" y="267" />
            </Array>
          </mxGeometry>
        </mxCell>
        <mxCell id="drqvJoOzzWH7c4p4iipj-5" value="应用Server" style="shape=umlLifeline;perimeter=lifelinePerimeter;whiteSpace=wrap;html=1;container=1;collapsible=0;recursiveResize=0;outlineConnect=0;" vertex="1" parent="1">
          <mxGeometry x="380" y="80" width="100" height="330" as="geometry" />
        </mxCell>
        <mxCell id="drqvJoOzzWH7c4p4iipj-6" value="SLS" style="shape=umlLifeline;perimeter=lifelinePerimeter;whiteSpace=wrap;html=1;container=1;collapsible=0;recursiveResize=0;outlineConnect=0;" vertex="1" parent="1">
          <mxGeometry x="600" y="80" width="100" height="320" as="geometry" />
        </mxCell>
        <mxCell id="drqvJoOzzWH7c4p4iipj-10" value="" style="endArrow=classic;html=1;" edge="1" parent="1" target="drqvJoOzzWH7c4p4iipj-4">
          <mxGeometry relative="1" as="geometry">
            <mxPoint x="110" y="160" as="sourcePoint" />
            <mxPoint x="180" y="160" as="targetPoint" />
          </mxGeometry>
        </mxCell>
        <mxCell id="drqvJoOzzWH7c4p4iipj-11" value="启动" style="edgeLabel;resizable=0;html=1;align=center;verticalAlign=middle;" connectable="0" vertex="1" parent="drqvJoOzzWH7c4p4iipj-10">
          <mxGeometry relative="1" as="geometry" />
        </mxCell>
        <mxCell id="drqvJoOzzWH7c4p4iipj-12" value="" style="endArrow=classic;html=1;" edge="1" parent="1" target="drqvJoOzzWH7c4p4iipj-5">
          <mxGeometry relative="1" as="geometry">
            <mxPoint x="230.5" y="180" as="sourcePoint" />
            <mxPoint x="380" y="180" as="targetPoint" />
          </mxGeometry>
        </mxCell>
        <mxCell id="drqvJoOzzWH7c4p4iipj-13" value="获取埋点配置" style="edgeLabel;resizable=0;html=1;align=center;verticalAlign=middle;" connectable="0" vertex="1" parent="drqvJoOzzWH7c4p4iipj-12">
          <mxGeometry relative="1" as="geometry" />
        </mxCell>
        <mxCell id="drqvJoOzzWH7c4p4iipj-14" value="" style="endArrow=classic;html=1;" edge="1" parent="1">
          <mxGeometry relative="1" as="geometry">
            <mxPoint x="429.5" y="209.9999999999999" as="sourcePoint" />
            <mxPoint x="230.02380952380952" y="209.9999999999999" as="targetPoint" />
          </mxGeometry>
        </mxCell>
        <mxCell id="drqvJoOzzWH7c4p4iipj-15" value="埋点配置" style="edgeLabel;resizable=0;html=1;align=center;verticalAlign=middle;" connectable="0" vertex="1" parent="drqvJoOzzWH7c4p4iipj-14">
          <mxGeometry relative="1" as="geometry" />
        </mxCell>
        <mxCell id="drqvJoOzzWH7c4p4iipj-16" value="Actor" style="shape=umlActor;verticalLabelPosition=bottom;verticalAlign=top;html=1;outlineConnect=0;" vertex="1" parent="1">
          <mxGeometry x="80" y="288.5" width="30" height="60" as="geometry" />
        </mxCell>
        <mxCell id="drqvJoOzzWH7c4p4iipj-17" value="" style="endArrow=classic;html=1;" edge="1" parent="1">
          <mxGeometry relative="1" as="geometry">
            <mxPoint x="110" y="317" as="sourcePoint" />
            <mxPoint x="229.5" y="316.76000000000005" as="targetPoint" />
          </mxGeometry>
        </mxCell>
        <mxCell id="drqvJoOzzWH7c4p4iipj-18" value="触发埋点" style="edgeLabel;resizable=0;html=1;align=center;verticalAlign=middle;" connectable="0" vertex="1" parent="drqvJoOzzWH7c4p4iipj-17">
          <mxGeometry relative="1" as="geometry" />
        </mxCell>
        <mxCell id="drqvJoOzzWH7c4p4iipj-23" value="" style="endArrow=classic;html=1;" edge="1" parent="1">
          <mxGeometry relative="1" as="geometry">
            <mxPoint x="429.48" y="279.9999999999999" as="sourcePoint" />
            <mxPoint x="230.0038095238095" y="279.9999999999999" as="targetPoint" />
          </mxGeometry>
        </mxCell>
        <mxCell id="drqvJoOzzWH7c4p4iipj-24" value="正常业务数据交换" style="edgeLabel;resizable=0;html=1;align=center;verticalAlign=middle;" connectable="0" vertex="1" parent="drqvJoOzzWH7c4p4iipj-23">
          <mxGeometry relative="1" as="geometry" />
        </mxCell>
        <mxCell id="drqvJoOzzWH7c4p4iipj-25" value="" style="endArrow=classic;html=1;" edge="1" parent="1" target="drqvJoOzzWH7c4p4iipj-6">
          <mxGeometry relative="1" as="geometry">
            <mxPoint x="240" y="380" as="sourcePoint" />
            <mxPoint x="389.5" y="380" as="targetPoint" />
          </mxGeometry>
        </mxCell>
        <mxCell id="drqvJoOzzWH7c4p4iipj-26" value="上报埋点" style="edgeLabel;resizable=0;html=1;align=center;verticalAlign=middle;" connectable="0" vertex="1" parent="drqvJoOzzWH7c4p4iipj-25">
          <mxGeometry relative="1" as="geometry" />
        </mxCell>
      </root>
    </mxGraphModel>
  </diagram>
</mxfile>
